<svg xmlns="http://www.w3.org/2000/svg" fill="none" viewBox="-0.75 -0.75 24 24" id="Burger--Streamline-Platinum" height="24" width="24">
  <desc>
    Burger Streamline Icon: https://streamlinehq.com
  </desc>
  <g id="burger">
    <path id="Vector" stroke="#000000" d="M22.03125 12.421875c-0.9918750000000001 -0.46875 -2.2931250000000003 -0.703125 -3.5934375000000003 -0.703125 -2.6953125 0 -4.4925 1.40625 -7.1878125 1.40625s-4.4925 -1.40625 -7.1859375 -1.40625c-1.30125 0 -2.6025 0.234375 -3.5953125 0.703125M20.625 5.15625l0.46875 3.75 -9.84375 0 -9.84375 0 0.46875 -3.75S3.75 0.9375 11.25 0.9375s9.375 4.21875 9.375 4.21875ZM20.625 19.6875l0.46875 -4.21875H11.25s-1.40625 1.40625 -4.6875 2.8125l-1.875 -2.8125H1.40625L1.875 19.6875s2.34375 1.875 9.375 1.875 9.375 -1.875 9.375 -1.875Z" stroke-width="1.5"></path>
  </g>
</svg>