<svg xmlns="http://www.w3.org/2000/svg" fill="none" viewBox="-0.75 -0.75 24 24" id="Candy--Streamline-Platinum" height="24" width="24">
  <desc>
    Candy Streamline Icon: https://streamlinehq.com
  </desc>
  <g id="candy">
    <path id="Vector" stroke="#000000" d="M16.8403125 6.8062499999999995c1.235625 -0.234375 3.095625 -0.5128125 4.9565624999999995 -0.5128125 0 0 -0.2371875 -2.1590625 -1.83375 -3.755625C18.365625 0.9403124999999999 16.2065625 0.703125 16.2065625 0.703125c0 1.8609375000000001 -0.2784375 3.7218750000000003 -0.5128125 4.9565624999999995M5.6596874999999995 15.693749999999998c-1.235625 0.234375 -3.095625 0.5128125 -4.9565624999999995 0.5128125 0 0 0.2371875 2.1590625 1.8346875 3.7565625 1.5965625 1.5965625 3.755625 1.83375 3.755625 1.83375 0 -1.861875 0.279375 -3.7246875 0.51375 -4.959375m11.7796875 -4.670625s0.459375 -3.21 -2.2931250000000003 -5.960624999999999c-2.7506250000000003 -2.7515625 -5.960624999999999 -2.2931250000000003 -5.960624999999999 -2.2931250000000003l-6.42 6.42s-0.459375 3.21 2.2931250000000003 5.960624999999999c2.7506250000000003 2.7515625 6.091875 2.161875 6.091875 2.161875l6.28875 -6.28875Z" stroke-width="1.5"></path>
  </g>
</svg>