<svg xmlns="http://www.w3.org/2000/svg" fill="none" viewBox="-0.75 -0.75 24 24" id="Card-Send-Money--Streamline-Platinum" height="24" width="24">
  <desc>
    Card Send Money Streamline Icon: https://streamlinehq.com
  </desc>
  <g id="card-send-money">
    <path id="Vector" stroke="#000000" d="m8.90625 9.84375 -8.4375 0m21.5625 0 -8.4375 0m8.4375 3.75H0.46875m11.623125 5.625c-0.091875 -1.5459375 0.429375 -2.3737500000000002 1.37625 -2.4290625 0.946875 -0.056249999999999994 1.363125 1.1146875 1.41 1.90875l0.0440625 -0.0028125s0.2203125 -0.8099999999999999 1.078125 -0.8606250000000001c0.8596875 -0.050624999999999996 0.9806250000000001 0.8278125000000001 0.9806250000000001 0.8278125000000001 0.841875 -0.00375 1.6753125 0.0046875 2.5921875 0.020624999999999998M8.90625 6.1537500000000005C3.7003125 6.4228125 0.46875 7.5 0.46875 7.5l0 13.125S4.6875 22.03125 11.25 22.03125 22.03125 20.625 22.03125 20.625l0 -13.125s-3.2315625 -1.0771875 -8.4375 -1.34625M7.5 4.21875c2.34375 -0.9375 3.75 -3.28125 3.75 -3.28125m0 0s1.40625 2.34375 3.75 3.28125M11.25 0.9375v9.375" stroke-width="1.5"></path>
  </g>
</svg>