<svg xmlns="http://www.w3.org/2000/svg" fill="none" viewBox="-0.75 -0.75 24 24" id="Card-Request-Payment--Streamline-Platinum" height="24" width="24">
  <desc>
    Card Request Payment Streamline Icon: https://streamlinehq.com
  </desc>
  <g id="card-request-payment">
    <path id="Vector" stroke="#000000" d="M7.5 6.5625c2.34375 0.9375 3.75 3.28125 3.75 3.28125m0 0S12.65625 7.5 15 6.5625m-3.75 3.28125V0M7.96875 9.84375l-7.5 0m21.5625 0h-7.5m7.5 3.75H0.46875m11.623125 5.625c-0.091875 -1.5459375 0.429375 -2.3737500000000002 1.37625 -2.4290625 0.946875 -0.056249999999999994 1.363125 1.1146875 1.41 1.90875l0.0440625 -0.0028125s0.2203125 -0.8099999999999999 1.078125 -0.8606250000000001c0.8596875 -0.050624999999999996 0.9806250000000001 0.8278125000000001 0.9806250000000001 0.8278125000000001 0.841875 -0.00375 1.6753125 0.0046875 2.5921875 0.020624999999999998M16.875 6.4471875C20.1225 6.862500000000001 22.03125 7.5 22.03125 7.5l0 13.125S17.8125 22.03125 11.25 22.03125 0.46875 20.625 0.46875 20.625l0 -13.125S2.3775 6.8634375 5.625 6.4471875" stroke-width="1.5"></path>
  </g>
</svg>