<svg xmlns="http://www.w3.org/2000/svg" fill="none" viewBox="-0.75 -0.75 24 24" id="Cart-Like--Streamline-Platinum" height="24" width="24">
  <desc>
    Cart Like Streamline Icon: https://streamlinehq.com
  </desc>
  <g id="cart-like">
    <path id="Vector" stroke="#000000" d="M10.78125 3.2971874999999997a1.8815625 1.8815625 0 0 0 -1.875 -1.8871875c-1.0359375 0 -1.875 0.8456250000000001 -1.875 1.8881249999999998 0 2.2659374999999997 1.5 3.7762499999999997 3.75 4.9087499999999995 2.25 -1.1325 3.75 -2.6428125 3.75 -4.9087499999999995a1.8806249999999998 1.8806249999999998 0 0 0 -1.875 -1.8881249999999998c-1.0359375 0 -1.875 0.8456250000000001 -1.875 1.8881249999999998l0 -0.0009375Zm0 0 0 -0.0159375m7.03125 1.875h3.75c-0.9375 7.03125 -3.28125 10.3125 -3.28125 10.3125s-1.875 0.9375 -6.09375 0.9375 -6.09375 -0.9375 -6.09375 -0.9375L2.109375 0.46875H0m9.84375 19.6875a1.875 1.875 0 1 1 -3.75 0 1.875 1.875 0 0 1 3.75 0Zm8.4375 0a1.875 1.875 0 1 1 -3.75 0 1.875 1.875 0 0 1 3.75 0Z" stroke-width="1.5"></path>
  </g>
</svg>