<svg xmlns="http://www.w3.org/2000/svg" fill="none" viewBox="-0.75 -0.75 24 24" id="Cart-Search--Streamline-Platinum" height="24" width="24">
  <desc>
    Cart Search Streamline Icon: https://streamlinehq.com
  </desc>
  <g id="cart-search">
    <path id="Vector" stroke="#000000" d="M16.875 5.15625h4.6875c-0.9375 7.03125 -3.28125 10.3125 -3.28125 10.3125s-1.875 0.9375 -6.09375 0.9375 -6.09375 -0.9375 -6.09375 -0.9375L2.109375 0.46875H0m14.5546875 8.4609375L12.65625 7.03125m-2.8125 13.125a1.875 1.875 0 1 1 -3.75 0 1.875 1.875 0 0 1 3.75 0Zm8.4375 0a1.875 1.875 0 1 1 -3.75 0 1.875 1.875 0 0 1 3.75 0ZM13.6171875 4.7109375a3.28125 3.28125 0 1 0 -6.5625 0 3.28125 3.28125 0 0 0 6.5625 0Z" stroke-width="1.5"></path>
  </g>
</svg>