<svg xmlns="http://www.w3.org/2000/svg" fill="none" viewBox="-0.75 -0.75 24 24" id="Cart-Add--Streamline-Platinum" height="24" width="24">
  <desc>
    Cart Add Streamline Icon: https://streamlinehq.com
  </desc>
  <g id="cart-add">
    <path id="Vector" stroke="#000000" d="M6.5625 5.15625h4.21875m0 0H15m-4.21875 0V0.9375m0 4.21875V9.375M17.8125 5.15625h3.75c-0.9375 7.03125 -3.28125 10.3125 -3.28125 10.3125s-1.875 0.9375 -6.09375 0.9375 -6.09375 -0.9375 -6.09375 -0.9375L2.109375 0.46875H0m9.84375 19.6875a1.875 1.875 0 1 1 -3.75 0 1.875 1.875 0 0 1 3.75 0Zm8.4375 0a1.875 1.875 0 1 1 -3.75 0 1.875 1.875 0 0 1 3.75 0Z" stroke-width="1.5"></path>
  </g>
</svg>