<svg xmlns="http://www.w3.org/2000/svg" fill="none" viewBox="-0.75 -0.75 24 24" id="Cart-Favorite--Streamline-Platinum" height="24" width="24">
  <desc>
    Cart Favorite Streamline Icon: https://streamlinehq.com
  </desc>
  <g id="cart-favorite">
    <path id="Vector" stroke="#000000" d="M17.8125 5.15625h3.75c-0.9375 7.03125 -3.28125 10.3125 -3.28125 10.3125s-1.875 0.9375 -6.09375 0.9375 -6.09375 -0.9375 -6.09375 -0.9375L2.109375 0.46875H0m9.84375 19.6875a1.875 1.875 0 1 1 -3.75 0 1.875 1.875 0 0 1 3.75 0Zm8.4375 0a1.875 1.875 0 1 1 -3.75 0 1.875 1.875 0 0 1 3.75 0ZM10.779375 1.640625l0.309375 0.6a6.0234375 6.0234375 0 0 0 2.604375 2.6053125l0.6 0.309375 -0.6 0.3075a6.0234375 6.0234375 0 0 0 -2.6053125 2.6053125l-0.30843750000000003 0.6 -0.30843750000000003 -0.6A6.0234375 6.0234375 0 0 0 7.8656250000000005 5.4628125l-0.6 -0.30843750000000003 0.6 -0.30843750000000003a6.0234375 6.0234375 0 0 0 2.6062499999999997 -2.6053125l0.30843750000000003 -0.6Z" stroke-width="1.5"></path>
  </g>
</svg>