<svg xmlns="http://www.w3.org/2000/svg" fill="none" viewBox="-0.75 -0.75 24 24" id="Cart-Remove--Streamline-Platinum" height="24" width="24">
  <desc>
    Cart Remove Streamline Icon: https://streamlinehq.com
  </desc>
  <g id="cart-remove">
    <path id="Vector" stroke="#000000" d="m7.5 1.875 3.28125 3.28125m0 0L14.0625 8.4375m-3.28125 -3.28125L14.0625 1.875m-3.28125 3.28125L7.5 8.4375m9.375 -3.28125h4.6875c-0.9375 7.03125 -3.28125 10.3125 -3.28125 10.3125s-1.875 0.9375 -6.09375 0.9375 -6.09375 -0.9375 -6.09375 -0.9375L2.109375 0.46875H0m9.84375 19.6875a1.875 1.875 0 1 1 -3.75 0 1.875 1.875 0 0 1 3.75 0Zm8.4375 0a1.875 1.875 0 1 1 -3.75 0 1.875 1.875 0 0 1 3.75 0Z" stroke-width="1.5"></path>
  </g>
</svg>