<svg xmlns="http://www.w3.org/2000/svg" fill="none" viewBox="-0.75 -0.75 24 24" id="Cash-Send-Money--Streamline-Platinum" height="24" width="24">
  <desc>
    Cash Send Money Streamline Icon: https://streamlinehq.com
  </desc>
  <g id="cash-send-money">
    <path id="Vector" stroke="#000000" d="M7.5 4.21875c2.34375 -0.9375 3.75 -3.28125 3.75 -3.28125m0 0s1.40625 2.34375 3.75 3.28125M11.25 0.9375v9.375M8.90625 7.96875 1.875 7.96875S0.46875 10.78125 0.46875 15 1.875 22.03125 1.875 22.03125h18.75s1.40625 -3.28125 1.40625 -7.03125S20.625 7.96875 20.625 7.96875l-7.03125 0m-8.4375 0.234375v0.375a3.375 3.375 0 0 1 -3.375 3.375H0.9375m16.40625 -3.75v0.375a3.375 3.375 0 0 0 3.375 3.375h0.84375m-4.21875 9.84375v-0.375a3.375 3.375 0 0 1 3.375 -3.375h0.84375m-16.40625 3.75v-0.375a3.375 3.375 0 0 0 -3.375 -3.375H0.9375M14.0625 15a2.8125 2.8125 0 1 1 -5.625 0 2.8125 2.8125 0 0 1 5.625 0Z" stroke-width="1.5"></path>
  </g>
</svg>