<svg xmlns="http://www.w3.org/2000/svg" fill="none" viewBox="-0.75 -0.75 24 24" id="Cookie--Streamline-Platinum" height="24" width="24">
  <desc>
    Cookie Streamline Icon: https://streamlinehq.com
  </desc>
  <g id="cookie">
    <g id="Vector">
      <path stroke="#000000" d="M14.071875 1.3284375A10.319999999999999 10.319999999999999 0 0 0 11.25 0.9375C5.5546875 0.9375 0.9375 5.5546875 0.9375 11.25s4.6171875 10.3125 10.3125 10.3125 10.3125 -4.6171875 10.3125 -10.3125c0 -0.97875 -0.1359375 -1.925625 -0.3909375 -2.821875a7.5 7.5 0 0 1 -7.09875 -7.0996875Z" stroke-width="1.5"></path>
      <path stroke="#000000" d="M9.84375 15.46875a1.40625 1.40625 0 1 1 -2.8125 0 1.40625 1.40625 0 0 1 2.8125 0Z" stroke-width="1.5"></path>
      <path stroke="#000000" d="M10.3125 7.03125a1.40625 1.40625 0 1 1 -2.8125 0 1.40625 1.40625 0 0 1 2.8125 0Z" stroke-width="1.5"></path>
      <path stroke="#000000" d="M17.8125 12.65625a1.40625 1.40625 0 1 1 -2.8125 0 1.40625 1.40625 0 0 1 2.8125 0Z" stroke-width="1.5"></path>
    </g>
  </g>
</svg>