<svg xmlns="http://www.w3.org/2000/svg" fill="none" viewBox="-0.75 -0.75 24 24" id="Crustaceans--Streamline-Platinum" height="24" width="24">
  <desc>
    Crustaceans Streamline Icon: https://streamlinehq.com
  </desc>
  <g id="crustaceans">
    <path id="Vector" stroke="#000000" d="M9.84375 11.71875h2.8125a6.5625 6.5625 0 0 0 6.5625 -6.5625m-9.375 6.5625a3.75 3.75 0 0 0 -3.75 3.75m3.75 -3.75v-6.5625m0 14.0625h2.8125a2.8125 2.8125 0 0 1 2.8125 2.8125h-6.5625a8.4375 8.4375 0 1 1 0 -16.875h10.3125m-9.375 14.0625a3.75 3.75 0 0 1 -3.75 -3.75m3.75 3.75V21.5625m9.375 -16.40625H20.625a1.40625 1.40625 0 0 0 0 -2.8125h-7.5A2.34375 2.34375 0 0 1 10.78125 0m-4.6875 15.46875H0.9375m6.09375 -2.8125 -4.6875 -4.6875m4.6875 10.3125L4.6875 20.625" stroke-width="1.5"></path>
  </g>
</svg>