<svg xmlns="http://www.w3.org/2000/svg" fill="none" viewBox="-0.75 -0.75 24 24" id="Currency-Exchange--Streamline-Platinum" height="24" width="24">
  <desc>
    Currency Exchange Streamline Icon: https://streamlinehq.com
  </desc>
  <g id="currency-exchange">
    <path id="Vector" stroke="#000000" d="M11.25 7.96875h-1.171875c-0.646875 0 -1.171875 0.5025000000000001 -1.171875 1.1212499999999999V10.3125l4.6875 1.875 0 1.2225000000000001c0 0.61875 -0.525 1.1212499999999999 -1.171875 1.1212499999999999H11.25m0 -6.5625h1.171875c0.646875 0 1.171875 0.5025000000000001 1.171875 1.1221875000000001v0.5615625M11.25 7.96875v-1.875m0 8.4375h-1.171875c-0.646875 0 -1.171875 -0.5025000000000001 -1.171875 -1.1221875000000001v-0.5615625M11.25 14.53125v1.875M4.21875 0.28125C3.28125 1.6875 1.640625 2.8125 1.640625 2.8125H11.25a8.4375 8.4375 0 0 1 5.8359375 14.53125m1.1953125 4.875c0.9375 -1.40625 2.578125 -2.53125 2.578125 -2.53125L11.25 19.6875A8.4375 8.4375 0 0 1 5.4140625 5.15625" stroke-width="1.5"></path>
  </g>
</svg>