<svg xmlns="http://www.w3.org/2000/svg" fill="none" viewBox="-0.75 -0.75 24 24" id="Fried-Egg--Streamline-Platinum" height="24" width="24">
  <desc>
    Fried Egg Streamline Icon: https://streamlinehq.com
  </desc>
  <g id="fried-egg">
    <path id="Vector" stroke="#000000" d="M11.25 7.5a2.8125 2.8125 0 0 1 2.8125 2.8125m2.34375 0a5.15625 5.15625 0 1 1 -10.3125 0 5.15625 5.15625 0 0 1 10.3125 0ZM11.25 0.9375C5.3568750000000005 0.9375 0.9375 6.2456249999999995 0.9375 12.7228125 0.9375 17.5471875 4.0640625 21.5625 7.92 21.5625c1.4184375 0 2.7384375 -0.5296875 3.8409375000000003 -1.4390625 0.5325 -0.440625 1.7690625 -1.490625 1.7690625 -1.490625l2.6109375000000004 0c2.994375 0 5.4215625 -3.0365625 5.4215625 -6.781875C21.5625 6.3374999999999995 17.8790625 0.9375 11.25 0.9375Z" stroke-width="1.5"></path>
  </g>
</svg>