<svg xmlns="http://www.w3.org/2000/svg" fill="none" viewBox="-0.75 -0.75 24 24" id="Fruit--Streamline-Platinum" height="24" width="24">
  <desc>
    Fruit Streamline Icon: https://streamlinehq.com
  </desc>
  <g id="fruit">
    <path id="Vector" stroke="#000000" d="M11.25 5.625s1.40625 -1.875 4.21875 -1.875C18.75 3.75 21.5625 5.8228125 21.5625 10.3125c-0.9375 5.625 -4.21875 10.3125 -4.21875 10.3125s-1.171875 0.9375 -3.046875 0.9375S11.25 20.625 11.25 20.625s-1.171875 0.9375 -3.046875 0.9375 -3.046875 -0.9375 -3.046875 -0.9375S1.875 15.9375 0.9375 10.3125c0 -4.4896875 2.8125 -6.5625 6.09375 -6.5625 2.8125 0 4.21875 1.875 4.21875 1.875Zm0 0a4.6875 4.6875 0 0 1 4.6875 -4.6875" stroke-width="1.5"></path>
  </g>
</svg>