<svg xmlns="http://www.w3.org/2000/svg" fill="none" viewBox="-0.75 -0.75 24 24" id="Gluten--Streamline-Platinum" height="24" width="24">
  <desc>
    Gluten Streamline Icon: https://streamlinehq.com
  </desc>
  <g id="gluten">
    <path id="Vector" stroke="#000000" d="M12.1875 10.3125c2.848125 -2.848125 3.7856250000000005 -6.5268749999999995 0.9375 -9.375L2.34375 11.71875a8.4375 8.4375 0 0 0 8.4375 8.4375L21.5625 9.375c-2.848125 -2.848125 -6.5268749999999995 -1.9106249999999998 -9.375 0.9375Zm0 0L0.46875 22.03125M18.2953125 7.690312499999999A7.963125 7.963125 0 0 0 22.03125 0.9375V0.46875H21.5625a7.963125 7.963125 0 0 0 -6.7528125 3.735M6.09375 7.96875a8.4375 8.4375 0 0 0 8.4375 8.4375m-4.6875 -12.1875a8.4375 8.4375 0 0 0 8.4375 8.4375" stroke-width="1.5"></path>
  </g>
</svg>