<svg xmlns="http://www.w3.org/2000/svg" fill="none" viewBox="-0.75 -0.75 24 24" id="Hide-Eye-Crossbar--Streamline-Platinum" height="24" width="24">
  <desc>
    Hide Eye Crossbar Streamline Icon: https://streamlinehq.com
  </desc>
  <g id="hide-eye-crossbar">
    <path id="Vector" stroke="#000000" d="m0.46875 0.46875 21.5625 21.5625M8.9296875 8.9296875a3.28125 3.28125 0 1 1 4.640625 4.640625m-1.3828125 0.825A3.28125 3.28125 0 0 1 8.104687499999999 10.3125M4.246875 6.5625C2.023125 8.81625 0.5625 11.25 0.5625 11.25S5.625 19.6875 11.25 19.6875c1.648125 0 3.2484374999999996 -0.7246875 4.6875 -1.7493750000000001M5.4731250000000005 5.416874999999999C7.17 3.9637499999999997 9.1715625 2.8125 11.25 2.8125c5.625 0 10.6875 8.4375 10.6875 8.4375s-1.9828125 3.3046875 -4.8459375 5.7778125000000005" stroke-width="1.5"></path>
  </g>
</svg>