<svg xmlns="http://www.w3.org/2000/svg" fill="none" viewBox="-0.75 -0.75 24 24" id="Ice-Cream--Streamline-Platinum" height="24" width="24">
  <desc>
    Ice Cream Streamline Icon: https://streamlinehq.com
  </desc>
  <g id="ice-cream">
    <path id="Vector" stroke="#000000" d="M6.21 14.0428125C6.9646875 15.628125 8.5171875 18.360937500000002 11.25 21.09375c2.7328125 -2.7328125 4.284375000000001 -5.465625 5.04 -7.0509375M15 10.3125s-1.40625 0.703125 -3.75 0.703125S7.5 10.3125 7.5 10.3125m-3.4003124999999996 -0.075c-0.8175 -2.46 -0.20249999999999999 -5.2584375 1.846875 -7.2093750000000005 2.92875 -2.7871875 7.678125 -2.7871875 10.606875 0 2.049375 1.9509375 2.664375 4.749375 1.846875 7.2093750000000005 0.223125 0.369375 0.3496875 0.7949999999999999 0.3496875 1.2468750000000002 0 1.4240625 -1.2590625 2.578125 -2.8125 2.578125 -0.6431250000000001 0 -1.2375 -0.1978125 -1.7109375 -0.5315624999999999A3.7443750000000002 3.7443750000000002 0 0 1 11.25 15a3.7434374999999998 3.7434374999999998 0 0 1 -2.9765625 -1.4690625A2.968125 2.968125 0 0 1 6.5625 14.0625c-1.5534375 0 -2.8125 -1.1540625 -2.8125 -2.578125 0 -0.45187499999999997 0.12656250000000002 -0.8775000000000001 0.3496875 -1.2468750000000002Z" stroke-width="1.5"></path>
  </g>
</svg>