<svg xmlns="http://www.w3.org/2000/svg" fill="none" viewBox="-0.75 -0.75 24 24" id="Image--Streamline-Platinum" height="24" width="24">
  <desc>
    Image Streamline Icon: https://streamlinehq.com
  </desc>
  <g id="image">
    <path id="Vector" stroke="#000000" d="M1.40625 15.9375s2.6953125 -4.21875 5.9034375 -6.5625c3.0796875000000004 2.34375 6.0806249999999995 6.5625 6.0806249999999995 6.5625s2.1393750000000002 -2.8125 3.85125 -3.75c1.711875 0.9375 3.8521875 3.75 3.8521875 3.75m0 -13.125S16.875 1.40625 11.25 1.40625 1.40625 2.8125 1.40625 2.8125v16.875S5.625 21.09375 11.25 21.09375 21.09375 19.6875 21.09375 19.6875V2.8125Zm-5.625 6.09375a1.875 1.875 0 1 1 0 -3.75 1.875 1.875 0 0 1 0 3.75Z" stroke-width="1.5"></path>
  </g>
</svg>