<svg xmlns="http://www.w3.org/2000/svg" fill="none" viewBox="-0.75 -0.75 24 24" id="Lupin--Streamline-Platinum" height="24" width="24">
  <desc>
    Lupin Streamline Icon: https://streamlinehq.com
  </desc>
  <g id="lupin">
    <path id="Vector" stroke="#000000" d="M13.59375 10.3125a1.3256249999999998 1.3256249999999998 0 0 1 0 1.875m-4.6875 -8.4375a1.3256249999999998 1.3256249999999998 0 0 0 0 1.875m0 11.25a1.3256249999999998 1.3256249999999998 0 0 0 0 1.875m12.1875 -7.5a4.21875 4.21875 0 0 1 -4.21875 4.21875c-2.8125 0 -5.15625 -2.8125 -5.15625 -4.21875S14.0625 7.03125 16.875 7.03125a4.21875 4.21875 0 0 1 4.21875 4.21875Zm-19.6875 -6.5625A4.21875 4.21875 0 0 0 5.625 8.90625c2.8125 0 5.15625 -2.8125 5.15625 -4.21875S8.4375 0.46875 5.625 0.46875A4.21875 4.21875 0 0 0 1.40625 4.6875Zm0 13.125A4.21875 4.21875 0 0 0 5.625 22.03125c2.8125 0 5.15625 -2.8125 5.15625 -4.21875S8.4375 13.59375 5.625 13.59375A4.21875 4.21875 0 0 0 1.40625 17.8125Z" stroke-width="1.5"></path>
  </g>
</svg>