<svg xmlns="http://www.w3.org/2000/svg" fill="none" viewBox="-0.75 -0.75 24 24" id="Meat--Streamline-Platinum" height="24" width="24">
  <desc>
    Meat Streamline Icon: https://streamlinehq.com
  </desc>
  <g id="meat">
    <path id="Vector" stroke="#000000" d="M0.46875 6.09375v3.6778125c0 4.1465625 2.8125 5.6971875 2.8125 5.6971875H8.4375c1.40625 3.28125 3.75 4.6875 3.75 4.6875h5.625s3.28125 -2.34375 3.28125 -7.96875V8.4375m0 0C21.09375 2.8125 17.8125 0.46875 17.8125 0.46875H3.28125S0.46875 1.875 0.46875 6.0215625s2.8125 5.6971875 2.8125 5.6971875H8.4375c1.40625 3.28125 3.75 4.6875 3.75 4.6875h5.625S21.09375 14.0625 21.09375 8.4375ZM16.875 2.8125l-7.5 7.5m9.84375 -2.34375L13.125 14.0625M9.84375 2.34375 3.75 8.4375" stroke-width="1.5"></path>
  </g>
</svg>