<svg xmlns="http://www.w3.org/2000/svg" fill="none" viewBox="-0.75 -0.75 24 24" id="Megaphone--Streamline-Platinum" height="24" width="24">
  <desc>
    Megaphone Streamline Icon: https://streamlinehq.com
  </desc>
  <g id="megaphone">
    <path id="Vector 2831" stroke="#000000" d="M7.96875 14.6090625V22.03125H4.051875c0.103125 -0.5625 0.166875 -1.1878125 0.166875 -1.8768749999999998 0 -3.75 -1.875 -5.623125 -1.875 -5.623125m5.625 0.0778125V4.21875m0 10.3903125a23.3390625 23.3390625 0 0 0 -1.875 -0.0778125h-3.75m5.625 0.0778125c6.4265625 0.5175000000000001 12.65625 3.4378124999999997 12.65625 3.4378124999999997s1.40625 -3.515625 1.40625 -8.671875S20.625 0.703125 20.625 0.703125 13.125 4.21875 6.09375 4.21875h-3.75S0.46875 5.9371875 0.46875 9.375s1.875 5.15625 1.875 5.15625" stroke-width="1.5"></path>
  </g>
</svg>