<svg xmlns="http://www.w3.org/2000/svg" fill="none" viewBox="-0.75 -0.75 24 24" id="Menu-3--Streamline-Platinum" height="24" width="24">
  <desc>
    Menu 3 Streamline Icon: https://streamlinehq.com
  </desc>
  <g id="menu-3">
    <g id="Vector">
      <path stroke="#000000" d="M3.75 1.40625c1.340625 0 2.34375 0.33468749999999997 2.34375 0.33468749999999997v4.0181249999999995s-1.003125 0.335625 -2.34375 0.335625c-1.3387499999999999 0 -2.34375 -0.335625 -2.34375 -0.335625V1.7409375S2.41125 1.40625 3.75 1.40625Z" stroke-width="1.5"></path>
      <path stroke="#000000" d="M11.25 1.40625c1.3396875000000001 0 2.34375 0.33468749999999997 2.34375 0.33468749999999997v4.0181249999999995s-1.0040624999999999 0.335625 -2.34375 0.335625 -2.34375 -0.335625 -2.34375 -0.335625V1.7409375S9.909375 1.40625 11.25 1.40625Z" stroke-width="1.5"></path>
      <path stroke="#000000" d="M18.75 1.40625c1.3387499999999999 0 2.34375 0.33468749999999997 2.34375 0.33468749999999997v4.0181249999999995s-1.0050000000000001 0.335625 -2.34375 0.335625c-1.3396875000000001 0 -2.34375 -0.335625 -2.34375 -0.335625V1.7409375S17.409375 1.40625 18.75 1.40625Z" stroke-width="1.5"></path>
      <path stroke="#000000" d="M3.75 8.90625c1.340625 0 2.34375 0.33468749999999997 2.34375 0.33468749999999997v4.0181249999999995S5.090624999999999 13.59375 3.75 13.59375c-1.3387499999999999 0 -2.34375 -0.33468749999999997 -2.34375 -0.33468749999999997V9.2409375S2.41125 8.90625 3.75 8.90625Z" stroke-width="1.5"></path>
      <path stroke="#000000" d="M3.75 16.40625c1.340625 0 2.34375 0.33468749999999997 2.34375 0.33468749999999997v4.0181249999999995S5.090624999999999 21.09375 3.75 21.09375c-1.3387499999999999 0 -2.34375 -0.33468749999999997 -2.34375 -0.33468749999999997v-4.0190624999999995S2.41125 16.40625 3.75 16.40625Z" stroke-width="1.5"></path>
      <path stroke="#000000" d="M11.25 8.90625c1.3396875000000001 0 2.34375 0.33468749999999997 2.34375 0.33468749999999997v4.0181249999999995s-1.0040624999999999 0.33468749999999997 -2.34375 0.33468749999999997 -2.34375 -0.33468749999999997 -2.34375 -0.33468749999999997V9.2409375S9.909375 8.90625 11.25 8.90625Z" stroke-width="1.5"></path>
      <path stroke="#000000" d="M11.25 16.40625c1.3396875000000001 0 2.34375 0.33468749999999997 2.34375 0.33468749999999997v4.0181249999999995s-1.0040624999999999 0.33468749999999997 -2.34375 0.33468749999999997 -2.34375 -0.33468749999999997 -2.34375 -0.33468749999999997v-4.0190624999999995s1.003125 -0.33375 2.34375 -0.33375Z" stroke-width="1.5"></path>
      <path stroke="#000000" d="M18.75 8.90625c1.3387499999999999 0 2.34375 0.33468749999999997 2.34375 0.33468749999999997v4.0181249999999995s-1.0050000000000001 0.33468749999999997 -2.34375 0.33468749999999997c-1.3396875000000001 0 -2.34375 -0.33468749999999997 -2.34375 -0.33468749999999997V9.2409375S17.409375 8.90625 18.75 8.90625Z" stroke-width="1.5"></path>
      <path stroke="#000000" d="M18.75 16.40625c1.3387499999999999 0 2.34375 0.33468749999999997 2.34375 0.33468749999999997v4.0181249999999995s-1.0050000000000001 0.33468749999999997 -2.34375 0.33468749999999997c-1.3396875000000001 0 -2.34375 -0.33468749999999997 -2.34375 -0.33468749999999997v-4.0190624999999995s1.003125 -0.33375 2.34375 -0.33375Z" stroke-width="1.5"></path>
    </g>
  </g>
</svg>