<svg xmlns="http://www.w3.org/2000/svg" fill="none" viewBox="-0.75 -0.75 24 24" id="Microphone--Streamline-Platinum" height="24" width="24">
  <desc>
    Microphone Streamline Icon: https://streamlinehq.com
  </desc>
  <g id="microphone">
    <path id="Vector" stroke="#000000" d="M11.25 18.28125c4.6875 0 7.03125 -1.875 7.03125 -1.875V7.5M11.25 18.28125c-4.6875 0 -7.03125 -1.875 -7.03125 -1.875V7.5M11.25 18.28125v3.75m-4.21875 -17.8125H9.375m3.75 0h2.34375m-8.4375 3.75H9.375m3.75 0h2.34375m-8.4375 3.75H9.375m3.75 0h2.34375m1.40625 10.3125H5.625m5.625 -21.5625L7.03125 0.46875v14.42625c1.089375 0.32062500000000005 2.495625 0.57375 4.21875 0.57375s3.129375 -0.25312500000000004 4.21875 -0.57375V0.46875L11.25 0.46875Z" stroke-width="1.5"></path>
  </g>
</svg>