<svg xmlns="http://www.w3.org/2000/svg" fill="none" viewBox="-0.75 -0.75 24 24" id="Mute-Notification--Streamline-Platinum" height="24" width="24">
  <desc>
    Mute Notification Streamline Icon: https://streamlinehq.com
  </desc>
  <g id="mute-notification">
    <path id="Vector" stroke="#000000" d="m0.46875 0.46875 21.5625 21.5625m-3.61875 -3.61875c2.35875 -0.613125 3.384375 -1.3499999999999999 3.384375 -1.3499999999999999L19.21875 14.0625l-0.001875 -4.4653125c0 -0.7725 -0.029062499999999998 -1.5525 -0.309375 -2.2725C18.2925 5.7421875 16.485 2.7871875 11.25 0.5625 8.0503125 1.9218749999999998 6.13125 3.5559375 4.9809375 4.9809375M16.40625 18.830624999999998c-1.40625 0.230625 -3.1153125 0.388125 -5.15625 0.388125C3.703125 19.21875 0.703125 17.0625 0.703125 17.0625L3.28125 14.0625l0.0009375 -4.4634375c0 -0.7734375 0.03 -1.5543749999999998 0.309375 -2.27625 0.0890625 -0.226875 0.20249999999999999 -0.48281250000000003 0.346875 -0.7603125000000001m4.618125 14.0625a3.2775 3.2775 0 0 0 2.6925 1.40625c1.1156249999999999 0 2.1 -0.5559375 2.6934375000000004 -1.40625" stroke-width="1.5"></path>
  </g>
</svg>