<svg xmlns="http://www.w3.org/2000/svg" fill="none" viewBox="-0.75 -0.75 24 24" id="Notification--Streamline-Platinum" height="24" width="24">
  <desc>
    Notification Streamline Icon: https://streamlinehq.com
  </desc>
  <g id="notification">
    <path id="Vector" stroke="#000000" d="M8.5565625 20.625a3.2775 3.2775 0 0 0 2.6925 1.40625c1.1156249999999999 0 2.1 -0.5559375 2.6934375000000004 -1.40625M11.25 19.21875C3.703125 19.21875 0.703125 17.0625 0.703125 17.0625L3.28125 14.0625l0.0009375 -4.4634375c0 -0.7734375 0.03 -1.5543749999999998 0.309375 -2.27625C4.2093750000000005 5.7403125 6.01875 2.78625 11.25 0.5634375c5.234999999999999 2.22375 7.0424999999999995 5.17875 7.657499999999999 6.7612499999999995 0.28031249999999996 0.72 0.309375 1.5 0.309375 2.2725L19.217812499999997 14.0625l2.5790625 3s-3 2.15625 -10.546875 2.15625Z" stroke-width="1.5"></path>
  </g>
</svg>