<svg xmlns="http://www.w3.org/2000/svg" fill="none" viewBox="-0.75 -0.75 24 24" id="Organic--Streamline-Platinum" height="24" width="24">
  <desc>
    Organic Streamline Icon: https://streamlinehq.com
  </desc>
  <g id="organic">
    <path id="Vector" stroke="#000000" d="M11.25 18.75H9.0403125A8.1028125 8.1028125 0 0 1 0.9375 10.6471875L0.9375 8.4375h2.2096875000000002A8.1028125 8.1028125 0 0 1 11.25 16.5403125M11.25 18.75l0 -2.2096875000000002M11.25 18.75l2.2096875000000002 0A8.1028125 8.1028125 0 0 0 21.5625 10.6471875V8.4375h-2.2096875000000002A8.1028125 8.1028125 0 0 0 11.25 16.5403125M11.25 18.75l0 3.75m3.8071875 -12.831562499999999a8.093437499999999 8.093437499999999 0 0 0 -2.2443750000000002 -7.168125L11.25 0.9375l-1.5628125 1.5628125a8.093437499999999 8.093437499999999 0 0 0 -2.2453125 7.168125" stroke-width="1.5"></path>
  </g>
</svg>