<svg xmlns="http://www.w3.org/2000/svg" fill="none" viewBox="-0.75 -0.75 24 24" id="Sesame--Streamline-Platinum" height="24" width="24">
  <desc>
    Sesame Streamline Icon: https://streamlinehq.com
  </desc>
  <g id="sesame">
    <g id="Vector">
      <path stroke="#000000" d="M1.40625 6.09375v-0.9375a3.75 3.75 0 0 1 3.75 -3.75h0.9375v0.9375a3.75 3.75 0 0 1 -3.75 3.75h-0.9375Z" stroke-width="1.5"></path>
      <path stroke="#000000" d="M8.90625 6.09375v-0.9375a3.75 3.75 0 0 1 3.75 -3.75h0.9375v0.9375a3.75 3.75 0 0 1 -3.75 3.75h-0.9375Z" stroke-width="1.5"></path>
      <path stroke="#000000" d="M16.40625 6.09375v-0.9375a3.75 3.75 0 0 1 3.75 -3.75h0.9375v0.9375a3.75 3.75 0 0 1 -3.75 3.75h-0.9375Z" stroke-width="1.5"></path>
      <path stroke="#000000" d="M17.34375 13.59375v-0.9375a3.75 3.75 0 0 0 -3.75 -3.75h-0.9375v0.9375a3.75 3.75 0 0 0 3.75 3.75h0.9375Z" stroke-width="1.5"></path>
      <path stroke="#000000" d="M9.84375 13.59375v-0.9375a3.75 3.75 0 0 0 -3.75 -3.75h-0.9375v0.9375a3.75 3.75 0 0 0 3.75 3.75h0.9375Z" stroke-width="1.5"></path>
      <path stroke="#000000" d="M1.40625 21.09375v-0.9375a3.75 3.75 0 0 1 3.75 -3.75h0.9375v0.9375a3.75 3.75 0 0 1 -3.75 3.75h-0.9375Z" stroke-width="1.5"></path>
      <path stroke="#000000" d="M8.90625 21.09375v-0.9375a3.75 3.75 0 0 1 3.75 -3.75h0.9375v0.9375a3.75 3.75 0 0 1 -3.75 3.75h-0.9375Z" stroke-width="1.5"></path>
      <path stroke="#000000" d="M16.40625 21.09375v-0.9375a3.75 3.75 0 0 1 3.75 -3.75h0.9375v0.9375a3.75 3.75 0 0 1 -3.75 3.75h-0.9375Z" stroke-width="1.5"></path>
    </g>
  </g>
</svg>