<svg xmlns="http://www.w3.org/2000/svg" fill="none" viewBox="-0.75 -0.75 24 24" id="Settings--Streamline-Platinum" height="24" width="24">
  <desc>
    Settings Streamline Icon: https://streamlinehq.com
  </desc>
  <g id="settings">
    <g id="Vector">
      <path stroke="#000000" d="M15 11.25a3.75 3.75 0 1 1 -7.5 0 3.75 3.75 0 0 1 7.5 0Z" stroke-width="1.5"></path>
      <path stroke="#000000" d="M20.15625 5.9653125000000005c-0.38437499999999997 -0.388125 -2.11875 -1.87875 -4.21875 -3.0909375000000003A20.2771875 20.2771875 0 0 0 11.25 0.9375c-0.5278124999999999 0.13874999999999998 -2.5875 0.72375 -4.6875 1.936875 -2.1 1.2121875 -3.8343749999999996 2.7028125 -4.21875 3.0909375000000003l0 10.569374999999999c0.38437499999999997 0.388125 2.11875 1.87875 4.21875 3.0909375000000003A20.278125 20.278125 0 0 0 11.25 21.5625c0.5278124999999999 -0.13874999999999998 2.5875 -0.72375 4.6875 -1.936875 2.1 -1.2121875 3.8343749999999996 -2.7028125 4.21875 -3.0909375000000003l0 -10.569374999999999Z" stroke-width="1.5"></path>
    </g>
  </g>
</svg>