<svg xmlns="http://www.w3.org/2000/svg" fill="none" viewBox="-0.75 -0.75 24 24" id="Share--Streamline-Platinum" height="24" width="24">
  <desc>
    Share Streamline Icon: https://streamlinehq.com
  </desc>
  <g id="share">
    <path id="Vector" stroke="#000000" d="m7.546875000000001 7.9125 6.980625 -4.105312499999999m0 14.885625000000001 -6.979687500000001 -4.10625M18.279375 0.46875c-2.1440625 0 -3.7518749999999996 0.53625 -3.7518749999999996 0.53625v6.43125s1.6078125 0.53625 3.7518749999999996 0.53625 3.7518749999999996 -0.53625 3.7518749999999996 -0.53625v-6.43125S20.4234375 0.46875 18.279375 0.46875Zm0 14.05875c-2.1440625 0 -3.7518749999999996 0.53625 -3.7518749999999996 0.53625v6.43125s1.6078125 0.53625 3.7518749999999996 0.53625 3.7518749999999996 -0.53625 3.7518749999999996 -0.53625v-6.43125s-1.6078125 -0.53625 -3.7518749999999996 -0.53625ZM4.220625 7.498125C2.0765624999999996 7.498125 0.46875 8.034375 0.46875 8.034375v6.43125s1.6078125 0.53625 3.7518749999999996 0.53625 3.7518749999999996 -0.53625 3.7518749999999996 -0.53625V8.034375s-1.6078125 -0.53625 -3.7518749999999996 -0.53625Z" stroke-width="1.5"></path>
  </g>
</svg>