<svg xmlns="http://www.w3.org/2000/svg" fill="none" viewBox="-0.75 -0.75 24 24" id="Shopping-Bag-Favorite--Streamline-Platinum" height="24" width="24">
  <desc>
    Shopping Bag Favorite Streamline Icon: https://streamlinehq.com
  </desc>
  <g id="shopping-bag-favorite">
    <path id="Vector" stroke="#000000" d="m14.0625 7.03125 -5.625 0m-1.40625 0h-3.75l-2.578125 12.1875s3.046875 2.8125 10.546875 2.8125a27.234375 27.234375 0 0 0 2.8125 -0.140625M15.46875 7.03125l3.75 0 1.2890625 6.09375M7.0321875 11.25V6.0459375c0 -2.53125 1.6875 -4.21875 4.2178125 -5.4834375 2.53125 1.265625 4.2178125 2.953125 4.2178125 5.4834375v5.203125m2.1121875 2.8171874999999997 0.30843750000000003 0.6a6.0234375 6.0234375 0 0 0 2.6053125 2.6053125l0.6 0.30843750000000003 -0.6 0.30843750000000003a6.024375 6.024375 0 0 0 -2.6053125 2.6053125l-0.30843750000000003 0.6 -0.309375 -0.6a6.0234375 6.0234375 0 0 0 -2.604375 -2.6053125l-0.6 -0.30843750000000003 0.6 -0.309375a6.0234375 6.0234375 0 0 0 2.6053125 -2.604375l0.30843750000000003 -0.6Z" stroke-width="1.5"></path>
  </g>
</svg>