<svg xmlns="http://www.w3.org/2000/svg" fill="none" viewBox="-0.75 -0.75 24 24" id="Shopping-Bag-Like--Streamline-Platinum" height="24" width="24">
  <desc>
    Shopping Bag Like Streamline Icon: https://streamlinehq.com
  </desc>
  <g id="shopping-bag-like">
    <path id="Vector" stroke="#000000" d="M18.28125 16.8909375a1.8815625 1.8815625 0 0 0 -1.875 -1.8871875c-1.0359375 0 -1.875 0.8456250000000001 -1.875 1.8881249999999998 0 2.2659374999999997 1.5 3.7762499999999997 3.75 4.9087499999999995 2.25 -1.1325 3.75 -2.6428125 3.75 -4.9087499999999995a1.8806249999999998 1.8806249999999998 0 0 0 -1.875 -1.8881249999999998c-1.0359375 0 -1.875 0.8456250000000001 -1.875 1.8881249999999998v-0.0009375Zm0 0 0 -0.0159375M14.0625 7.03125l-5.625 0m-1.40625 0h-3.75l-2.578125 12.1875s3.046875 2.8125 10.546875 2.8125c0.6590625 0 1.284375 -0.0215625 1.875 -0.060937500000000006M15.46875 7.03125l3.75 0 1.0903125 5.15625M7.0321875 11.25V6.0459375c0 -2.53125 1.6875 -4.21875 4.2178125 -5.4834375 2.53125 1.265625 4.2178125 2.953125 4.2178125 5.4834375v5.203125" stroke-width="1.5"></path>
  </g>
</svg>