<svg xmlns="http://www.w3.org/2000/svg" fill="none" viewBox="-0.75 -0.75 24 24" id="Shopping-Bag-Search--Streamline-Platinum" height="24" width="24">
  <desc>
    Shopping Bag Search Streamline Icon: https://streamlinehq.com
  </desc>
  <g id="shopping-bag-search">
    <path id="Vector" stroke="#000000" d="m22.03125 22.03125 -1.8984375 -1.8984375M14.0625 7.03125l-5.625 0m-1.40625 0h-3.75l-2.578125 12.1875s3.046875 2.8125 10.546875 2.8125c0.6590625 0 1.284375 -0.0215625 1.875 -0.060937500000000006M15.46875 7.03125l3.75 0 1.0903125 5.15625M7.0321875 11.25V6.0459375c0 -2.53125 1.6875 -4.21875 4.2178125 -5.4834375 2.53125 1.265625 4.2178125 2.953125 4.2178125 5.4834375v5.203125M21.09375 17.8125a3.28125 3.28125 0 1 0 -6.5625 0 3.28125 3.28125 0 0 0 6.5625 0Z" stroke-width="1.5"></path>
  </g>
</svg>