<svg xmlns="http://www.w3.org/2000/svg" fill="none" viewBox="-0.75 -0.75 24 24" id="Snack-Popcorn--Streamline-Platinum" height="24" width="24">
  <desc>
    Snack Popcorn Streamline Icon: https://streamlinehq.com
  </desc>
  <g id="snack-popcorn">
    <path id="Vector" stroke="#000000" d="M3.8971875000000002 9.238125A2.3446875 2.3446875 0 0 1 4.6875 4.6875a2.8125 2.8125 0 0 1 4.0190624999999995 -2.540625A3.2746874999999998 3.2746874999999998 0 0 1 11.25 0.9375c1.0265625 0 1.9425000000000001 0.470625 2.5434375 1.209375A2.8125 2.8125 0 0 1 17.8125 4.6875a2.34375 2.34375 0 0 1 0.7903125 4.550625M14.0625 7.272187499999999 13.125 21.5625M8.4375 7.272187499999999 9.375 21.5625m7.03125 0C16.875 14.0625 18.75 9.375 18.75 9.375s-2.25 -2.34375 -7.5 -2.34375S3.75 9.375 3.75 9.375s1.875 4.6875 2.34375 12.1875h10.3125Z" stroke-width="1.5"></path>
  </g>
</svg>