<svg xmlns="http://www.w3.org/2000/svg" fill="none" viewBox="-0.75 -0.75 24 24" id="Soy--Streamline-Platinum" height="24" width="24">
  <desc>
    Soy Streamline Icon: https://streamlinehq.com
  </desc>
  <g id="soy">
    <path id="Vector" stroke="#000000" d="M19.6875 2.8125c-0.853125 3.40875 0 6.02625 -1.8421875 7.868437500000001 -0.49593750000000003 0.49593750000000003 -1.0828125 0.84375 -1.7081250000000001 1.044375a2.836875 2.836875 0 0 0 -1.7671875 1.7671875 4.244999999999999 4.244999999999999 0 0 1 -1.044375 1.7081250000000001c-0.49593750000000003 0.49593750000000003 -1.0828125 0.84375 -1.7081250000000001 1.044375a2.836875 2.836875 0 0 0 -1.7671875 1.7671875 4.243125 4.243125 0 0 1 -1.044375 1.7081250000000001C6.477187499999999 21.5625 4.34625 20.7103125 0.9375 21.5625c0.853125 -3.40875 -0.4265625 -5.600625 1.8421875 -7.868437500000001a4.2440625 4.2440625 0 0 1 1.7081250000000001 -1.044375 2.836875 2.836875 0 0 0 1.7671875 -1.7671875 4.243125 4.243125 0 0 1 1.044375 -1.7081250000000001 4.243125 4.243125 0 0 1 1.7081250000000001 -1.044375 2.836875 2.836875 0 0 0 1.7671875 -1.7671875 4.244999999999999 4.244999999999999 0 0 1 1.044375 -1.7081250000000001C13.7221875 2.7515625 16.278750000000002 3.6646875 19.6875 2.8125Zm0 0L22.03125 0.46875M11.638125 13.513125a1.875 1.875 0 1 0 -2.6512499999999997 -2.6512499999999997 1.875 1.875 0 0 0 2.6512499999999997 2.6512499999999997Zm4.518750000000001 -4.520625a1.8740625000000002 1.8740625000000002 0 1 0 -2.649375 -2.6503125 1.8740625000000002 1.8740625000000002 0 0 0 2.6503125 2.6503125Zm-9.037500000000001 9.0403125a1.875 1.875 0 1 0 -2.653125 -2.6512499999999997 1.875 1.875 0 0 0 2.653125 2.6512499999999997Z" stroke-width="1.5"></path>
  </g>
</svg>