<svg xmlns="http://www.w3.org/2000/svg" fill="none" viewBox="-0.75 -0.75 24 24" id="Sports--Streamline-Platinum" height="24" width="24">
  <desc>
    Sports Streamline Icon: https://streamlinehq.com
  </desc>
  <g id="sports">
    <path id="Vector" stroke="#000000" d="M21.09375 11.25c0 5.4365625 -4.4071875 9.84375 -9.84375 9.84375S1.40625 16.6865625 1.40625 11.25m19.6875 0c0 -5.4365625 -4.4071875 -9.84375 -9.84375 -9.84375S1.40625 5.8134375 1.40625 11.25m19.6875 0c0 2.6821875000000004 -1.0725 5.1140625 -2.8125 6.8896875a9.811874999999999 9.811874999999999 0 0 1 -2.8125 -6.8896875c0 -2.6821875000000004 1.0725 -5.1140625 2.8125 -6.88875 1.74 1.7746875 2.8125 4.2065625 2.8125 6.88875Zm-19.6875 0c0 -2.6821875000000004 1.0725 -5.1140625 2.8125 -6.88875 1.74 1.7746875 2.8125 4.2065625 2.8125 6.88875 0 2.6821875000000004 -1.0725 5.1140625 -2.8125 6.8896875A9.811874999999999 9.811874999999999 0 0 1 1.40625 11.25ZM11.25 2.8125v16.875m9.84375 -9.84375s-2.8125 2.8125 -9.84375 2.8125 -9.84375 -2.8125 -9.84375 -2.8125" stroke-width="1.5"></path>
  </g>
</svg>