<svg xmlns="http://www.w3.org/2000/svg" fill="none" viewBox="-0.75 -0.75 24 24" id="Sulfur-Oxide--Streamline-Platinum" height="24" width="24">
  <desc>
    Sulfur Oxide Streamline Icon: https://streamlinehq.com
  </desc>
  <g id="sulfur-oxide">
    <path id="Vector" stroke="#000000" d="M7.96875 10.3125v-0.9375a0.46875 0.46875 0 0 0 -0.46875 -0.46875H5.625a0.46875 0.46875 0 0 0 -0.46875 0.46875v1.40625l2.8125 0.9375V13.125a0.46875 0.46875 0 0 1 -0.46875 0.46875H5.625a0.46875 0.46875 0 0 1 -0.46875 -0.46875v-0.9375M17.8125 15.46875h-3.28125v-1.640625l2.8125 -0.9375V11.25a0.46875 0.46875 0 0 0 -0.46875 -0.46875h-1.875a0.46875 0.46875 0 0 0 -0.46875 0.46875v0.9375M10.3125 13.59375h1.875a0.46875 0.46875 0 0 0 0.46875 -0.46875v-3.75a0.46875 0.46875 0 0 0 -0.46875 -0.46875h-1.875a0.46875 0.46875 0 0 0 -0.46875 0.46875v3.75a0.46875 0.46875 0 0 0 0.46875 0.46875ZM22.03125 11.25C22.03125 5.2959375 17.2040625 0.46875 11.25 0.46875S0.46875 5.2959375 0.46875 11.25 5.2959375 22.03125 11.25 22.03125 22.03125 17.2040625 22.03125 11.25Z" stroke-width="1.5"></path>
  </g>
</svg>