<svg xmlns="http://www.w3.org/2000/svg" fill="none" viewBox="-0.75 -0.75 24 24" id="Tree-Nuts--Streamline-Platinum" height="24" width="24">
  <desc>
    Tree Nuts Streamline Icon: https://streamlinehq.com
  </desc>
  <g id="tree-nuts">
    <path id="Vector" stroke="#000000" d="M19.21875 11.25v0.421875c0 4.78125 -3.1875 7.875 -7.96875 10.265625 -4.78125 -2.390625 -7.96875 -5.484375 -7.96875 -10.265625V11.25M15 9.553125a21.285 21.285 0 0 0 1.875 -0.38437499999999997m-5.625 0.6749999999999999c0.6571874999999999 0 1.2834375 -0.025312499999999998 1.875 -0.07125m0 -2.8125c0.6684375 -0.050624999999999996 1.29375 -0.12656250000000002 1.875 -0.21937500000000001M8.90625 1.40625l1.0050000000000001 1.5075a8.8790625 8.8790625 0 0 0 -7.303125 6.7434375L2.34375 10.78125s3.28125 1.875 8.90625 1.875 8.90625 -1.875 8.90625 -1.875l-0.26437499999999997 -1.125a8.8790625 8.8790625 0 0 0 -7.303125 -6.7425L13.59375 1.40625s-0.9375 -0.9375 -2.34375 -0.9375 -2.34375 0.9375 -2.34375 0.9375Z" stroke-width="1.5"></path>
  </g>
</svg>