<svg xmlns="http://www.w3.org/2000/svg" fill="none" viewBox="-0.75 -0.75 24 24" id="Tv--Streamline-Platinum" height="24" width="24">
  <desc>
    Tv Streamline Icon: https://streamlinehq.com
  </desc>
  <g id="tv">
    <path id="Vector" stroke="#000000" d="M11.25 4.6875C4.6875 4.6875 0.9375 6.09375 0.9375 6.09375v14.0625S4.6875 21.5625 11.25 21.5625s10.3125 -1.40625 10.3125 -1.40625v-14.0625S17.8125 4.6875 11.25 4.6875Zm0 0c1.40625 -2.34375 3.75 -3.75 3.75 -3.75m-3.75 3.75c-1.40625 -2.34375 -3.75 -3.75 -3.75 -3.75m3.75 17.8125c-3.2090625 0 -5.745937499999999 -0.3365625 -7.5 -0.6796875V8.1796875C5.504062500000001 7.8374999999999995 8.0409375 7.5 11.25 7.5s5.745937499999999 0.3365625 7.5 0.6796875v9.890625c-1.7540625 0.343125 -4.2909375 0.6796875 -7.5 0.6796875Z" stroke-width="1.5"></path>
  </g>
</svg>