<svg xmlns="http://www.w3.org/2000/svg" fill="none" viewBox="-0.75 -0.75 24 24" id="Video-Games--Streamline-Platinum" height="24" width="24">
  <desc>
    Video Games Streamline Icon: https://streamlinehq.com
  </desc>
  <g id="video-games">
    <g id="Group 3">
      <path id="Vector" stroke="#000000" d="M7.123125 7.123125v4.5853125m2.2931250000000003 -2.2931250000000003H4.8290625m0.459375 9.63c-4.127812499999999 0 -4.586250000000001 -3.6684375 -4.586250000000001 -3.6684375l2.7515625 -10.546875S6.20625 3.4546875 11.25 3.4546875c5.04375 0 7.7953125 1.3753125000000002 7.7953125 1.3753125000000002l2.7515625 10.546875s-0.459375 3.6684375 -4.5853125 3.6684375l-2.7515625 -4.5853125s-1.3753125000000002 -0.459375 -3.21 -0.459375c-1.8346875 0 -3.21 0.459375 -3.21 0.459375l-2.7515625 4.5853125Zm10.0875 -11.46375a1.8346875 1.8346875 0 1 1 0 3.6684375 1.8346875 1.8346875 0 0 1 0 -3.6684375Z" stroke-width="1.5"></path>
    </g>
  </g>
</svg>