<svg width="180" height="173" viewBox="0 0 180 173" fill="none" xmlns="http://www.w3.org/2000/svg">
<path d="M128.158 36.2773C162.516 36.2773 185.362 70.4607 178.91 108.655C172.98 143.885 142.982 172.313 111.241 172.313C77.5814 172.313 53.8623 137.956 60.3154 99.9355C66.4194 64.7052 96.5907 36.2775 128.158 36.2773ZM130.251 41.5107C122.229 41.5107 115.427 59.9972 107.927 103.249C100.079 148.594 100.777 167.082 108.974 167.082C117.345 167.082 123.973 148.245 131.298 105.342C139.321 59.9967 138.797 41.511 130.251 41.5107Z" fill="#EFEEEA"/>
<path d="M77.1758 54.1523C65.5817 65.8764 57.0655 81.509 54.0859 98.7061C51.1247 116.153 54.2982 132.856 61.7822 146.05C61.3583 148.873 60.9032 152.012 60.166 156.818H0V156.273C8.27352 152.419 14.1396 143.788 15.9824 132.581L28.7119 52.7998H15.7188V52.1973C41.9121 41.3668 65.5479 21.4737 85.8369 0H86.2314L77.1758 54.1523Z" fill="#EFEEEA"/>
</svg>
