<svg width="1006" height="963" viewBox="0 0 1006 963" fill="none" xmlns="http://www.w3.org/2000/svg">
<path d="M715.934 202.651C907.867 202.651 1035.5 393.611 999.451 606.979C966.325 803.785 798.747 962.594 621.43 962.595C433.394 962.595 300.889 770.664 336.938 558.269C371.037 361.459 539.586 202.652 715.934 202.651ZM727.623 231.885C682.809 231.885 644.81 335.157 602.914 576.775C559.073 830.089 562.972 933.368 608.761 933.368C655.528 933.368 692.549 828.139 733.47 588.469C778.289 335.154 775.365 231.885 727.623 231.885Z" fill="#0B1E3C" style="fill:#0B1E3C;fill:color(display-p3 0.0431 0.1176 0.2353);fill-opacity:1;"/>
<path d="M431.136 302.504C366.368 367.998 318.798 455.326 302.153 551.395C285.612 648.85 303.328 742.145 345.125 815.848C342.756 831.628 340.232 849.173 336.11 876.042H0V872.997C46.2188 851.464 78.9903 803.248 89.2852 740.644L160.396 294.955H87.8115V291.593C234.137 231.09 366.171 119.959 479.513 0H481.717L431.136 302.504Z" fill="#0B1E3C" style="fill:#0B1E3C;fill:color(display-p3 0.0431 0.1176 0.2353);fill-opacity:1;"/>
</svg>
