<svg width="180" height="173" viewBox="0 0 180 173" fill="none" xmlns="http://www.w3.org/2000/svg">
<path d="M128.161 36.2773C162.518 36.2773 185.364 70.4608 178.912 108.655C172.982 143.885 142.986 172.312 111.245 172.312C77.5856 172.312 53.8663 137.956 60.3193 99.9355C66.4232 64.7053 96.594 36.2776 128.161 36.2773ZM130.254 41.5107C122.232 41.5107 115.43 59.9967 107.931 103.248C100.083 148.592 100.78 167.08 108.977 167.081C117.348 167.081 123.976 148.244 131.301 105.342C139.324 59.9968 138.8 41.5108 130.254 41.5107Z" fill="#392F36"/>
<path d="M77.1738 54.1553C65.5831 65.8786 57.0708 81.509 54.0918 98.7031C51.1311 116.147 54.3024 132.846 61.7832 146.039C61.3589 148.865 60.9041 152.006 60.166 156.817L0 156.818V156.272C8.27337 152.418 14.1396 143.787 15.9824 132.58L28.7119 52.7988H15.7188V52.1973C41.9118 41.3669 65.5462 21.4736 85.835 0H86.2295L77.1738 54.1553Z" fill="#392F36"/>
</svg>
