<svg width="535" height="512" viewBox="0 0 535 512" fill="none" xmlns="http://www.w3.org/2000/svg">
<path d="M380.803 107.789C482.891 107.789 550.776 209.361 531.604 322.851C513.984 427.531 424.85 512.001 330.536 512.001C230.52 512.001 160.041 409.914 179.216 296.941C197.353 192.259 287.004 107.789 380.803 107.789ZM387.02 123.339C363.183 123.339 342.972 178.269 320.688 306.785C297.369 441.522 299.443 496.455 323.798 496.455C348.673 496.455 368.364 440.484 390.13 313.004C413.969 178.267 412.413 123.339 387.02 123.339Z" fill="#EFEEEA"/>
<path d="M229.317 160.909C194.872 195.744 169.573 242.189 160.721 293.283C151.923 345.115 161.344 394.735 183.571 433.936C182.311 442.332 180.968 451.666 178.775 465.964H0V464.344C24.5836 452.89 42.0145 427.244 47.4902 393.945L85.3145 156.886H46.707V155.097C124.537 122.916 194.765 63.806 255.051 0H256.224L229.317 160.909Z" fill="#EFEEEA"/>
</svg>
