<svg width="535" height="512" viewBox="0 0 535 512" fill="none" xmlns="http://www.w3.org/2000/svg">
<path d="M380.81 107.787C482.898 107.787 550.782 209.358 531.61 322.849C513.991 427.529 424.857 512 330.543 512C230.528 512 160.049 409.912 179.224 296.939C197.361 192.257 287.011 107.787 380.81 107.787ZM387.026 123.336C363.19 123.337 342.98 178.267 320.695 306.783C297.377 441.52 299.45 496.454 323.805 496.455C348.68 496.455 368.371 440.483 390.137 313.003C413.975 178.265 412.42 123.336 387.026 123.336Z" fill="#392F36"/>
<path d="M229.316 160.915C194.873 195.75 169.574 242.194 160.722 293.287C151.925 345.118 161.345 394.737 183.571 433.938C182.311 442.334 180.968 451.668 178.775 465.966H0V464.346C24.5835 452.892 42.0145 427.247 47.4902 393.947L85.3145 156.886H46.707V155.098C124.536 122.916 194.764 63.8062 255.05 0H256.223L229.316 160.915Z" fill="#392F36"/>
</svg>
