<svg width="1024" height="357" viewBox="0 0 1024 357" fill="none" xmlns="http://www.w3.org/2000/svg">
<path fill-rule="evenodd" clip-rule="evenodd" d="M109.493 17.4892C76.0905 49.6889 41.0993 75.2008 10.9612 89.3319L0 94.4712L11.7609 95.0326C18.2304 95.3397 23.5219 96.1385 23.5219 96.8073C23.5219 97.4742 18.7723 125.622 12.969 159.357C-1.22126 241.836 -0.908889 250.911 16.6629 266.357C39.1178 286.094 90.9733 277.913 121.734 249.778C129.011 243.123 129.299 242.557 124.544 244.245C105.084 251.154 91.2612 243.093 91.2687 224.843C91.2706 218.538 106.654 122.622 111.195 100.594L112.263 95.4132H131.931C146.028 95.4132 151.803 94.7463 152.318 93.0583C152.713 91.7641 153.513 87.9473 154.093 84.5807L155.15 78.458H135.439C124.598 78.458 115.731 77.8232 115.735 77.0451C115.739 76.2671 118.643 58.6865 122.186 37.9748C125.729 17.2631 128.477 0.176128 128.294 0.00280907C128.11 -0.17051 119.649 7.69856 109.493 17.4892ZM235.219 74.7166C179.67 82.2447 134.545 134.188 134.545 190.605C134.545 290.039 263.566 309.713 311.462 217.579C320.925 199.375 320.891 197.153 311.287 206.484C288.491 228.632 247.443 226.456 233.636 202.366C224.886 187.099 225.05 186.513 238.465 185.053C293.421 179.068 326.484 156.273 326.484 124.367C326.484 91.229 283.984 68.1097 235.219 74.7166ZM442.211 75.9185C426.902 88.0942 389.585 99.8573 359.061 102.129L341.771 103.416L345.802 108.876C353.032 118.664 352.301 131.69 340.708 199.97C334.901 234.163 329.681 264.471 329.109 267.32L328.066 272.5H371.292H414.518L415.487 268.261C416.021 265.929 421.781 232.075 428.288 193.03C439.099 128.165 440.454 121.946 443.988 120.995C450.92 119.132 461.174 119.847 464.719 122.443C468.806 125.435 469.316 120.699 457.328 191.302C447.258 250.596 447.302 254.703 458.092 265.034C476.563 282.722 532.308 280.972 553.797 262.028L558.88 257.548L550.049 257.489C532.146 257.369 532.176 258.126 546.827 174.784C559.104 104.94 559.629 96.3062 552.226 85.8995C537.178 64.7413 493.566 73.5731 453.972 105.795C446.987 111.481 441.272 115.921 441.276 115.663C441.28 115.405 442.974 106.475 445.04 95.8182C450.028 70.0916 449.979 69.7412 442.211 75.9185ZM675.549 76.8774C656.884 89.4261 623.52 99.7725 594.359 102.056L577.176 103.401L581.672 110.032C588.489 120.09 587.808 127.129 569.23 238.59C559.915 294.472 552.294 341.069 552.294 342.141C549.577 352.29 534.417 357 534.417 357H649.204C649.204 357 636.973 354.174 638.051 344.089L643.301 311.591C650.476 267.186 649.313 270.641 656.407 272.677C717.329 290.169 790.838 225.708 794.609 151.488C798.466 75.5361 743.967 48.9599 688.478 99.7311C682.919 104.818 678.371 108.258 678.371 107.376C678.371 106.496 679.641 99.1301 681.194 91.0086C685.198 70.0615 685.302 70.3196 675.549 76.8774ZM906.063 74.711C807.151 86.6964 766.571 207.272 844.024 259.053C911.181 303.95 1009.9 261.568 1022.78 182.303C1033.13 118.57 976.32 66.1976 906.063 74.711ZM251.148 87.7532C258.366 101.259 246.312 154.327 232.995 167.657C224.531 176.133 224.325 175.931 224.664 159.458C225.526 117.511 242.494 71.5667 251.148 87.7532ZM936.077 90.7034C943.502 105.882 931.038 201.294 916.242 242.537C901.105 284.729 885.018 272.223 889.363 221.644C896.982 132.909 922.178 62.2885 936.077 90.7034ZM693.303 119.781C714.348 140.851 686.519 263.081 660.677 263.081C658.093 263.081 655.222 261.73 654.3 260.08C652.924 257.619 663.069 191.858 675.562 122.259C676.896 114.819 686.944 113.416 693.303 119.781Z" fill="#392F36"/>
</svg>
