<svg width="2040" height="716" viewBox="0 0 2040 716" fill="none" xmlns="http://www.w3.org/2000/svg">
<g filter="url(#filter0_d_55_1514)">
<path fill-rule="evenodd" clip-rule="evenodd" d="M221.207 34.6545C154.944 98.4575 85.5306 149.009 25.7442 177.009L4 187.193L27.3307 188.305C40.1645 188.913 50.6614 190.496 50.6614 191.821C50.6614 193.143 41.2396 248.916 29.7273 315.762C1.57734 479.193 2.19699 497.174 37.055 527.78C81.5998 566.89 184.468 550.678 245.49 494.93C259.925 481.742 260.496 480.622 251.063 483.967C212.461 497.655 185.039 481.682 185.054 445.522C185.058 433.028 215.574 242.974 224.582 199.325L226.702 189.059H265.718C293.682 189.059 305.138 187.738 306.161 184.393C306.945 181.828 308.531 174.266 309.681 167.595L311.779 155.463H272.677C251.171 155.463 233.582 154.205 233.589 152.663C233.597 151.121 239.357 116.286 246.386 75.2462C253.415 34.2065 258.865 0.348994 258.503 0.00556611C258.137 -0.337862 241.354 15.2545 221.207 34.6545ZM470.614 148.049C360.419 162.966 270.903 265.89 270.903 377.68C270.903 574.707 526.847 613.689 621.861 431.127C640.634 395.056 640.567 390.655 621.514 409.144C576.293 453.029 494.863 448.717 467.475 400.984C450.117 370.733 450.442 369.572 477.054 366.679C586.074 354.819 651.661 309.651 651.661 246.43C651.661 180.768 567.353 134.958 470.614 148.049ZM881.235 150.431C850.864 174.557 776.837 197.865 716.285 202.367L681.987 204.917L689.983 215.735C704.325 235.131 702.876 260.94 679.878 396.236C668.358 463.988 658.003 524.043 656.868 529.688L654.8 539.953H740.549H826.298L828.22 531.554C829.28 526.933 840.707 459.852 853.615 382.484C875.061 253.956 877.749 241.633 884.759 239.748C898.511 236.057 918.852 237.475 925.884 242.619C933.992 248.547 935.004 239.162 911.222 379.061C891.247 496.551 891.333 504.688 912.737 525.16C949.38 560.208 1059.96 556.74 1102.59 519.202L1112.68 510.325L1095.16 510.209C1059.64 509.97 1059.7 511.471 1088.77 346.331C1113.12 207.936 1114.16 190.829 1099.48 170.208C1069.62 128.283 983.11 145.783 904.566 209.631C890.709 220.897 879.372 229.696 879.38 229.184C879.387 228.673 882.747 210.979 886.846 189.862C896.742 138.885 896.645 138.191 881.235 150.431ZM1344.12 152.331C1307.09 177.196 1240.91 197.697 1183.06 202.221L1148.97 204.887L1157.89 218.027C1171.41 237.957 1170.06 251.903 1133.21 472.761C1114.73 583.49 1099.61 675.82 1099.61 677.944C1094.22 698.055 1064.15 707.388 1064.15 707.388H1291.86C1291.86 707.388 1267.59 701.788 1269.73 681.804L1280.15 617.411C1294.38 529.423 1292.07 536.269 1306.15 540.304C1427 574.964 1572.82 447.235 1580.3 300.169C1587.95 149.673 1479.84 97.0128 1369.77 197.615C1358.74 207.694 1349.72 214.51 1349.72 212.763C1349.72 211.02 1352.24 196.424 1355.32 180.332C1363.26 138.825 1363.46 139.337 1344.12 152.331ZM1801.4 148.038C1605.18 171.787 1524.68 410.705 1678.33 513.308C1811.55 602.27 2007.38 518.291 2032.93 361.229C2053.47 234.944 1940.77 131.169 1801.4 148.038ZM502.214 173.881C516.533 200.642 492.62 305.795 466.202 332.209C449.411 349.003 449.005 348.604 449.677 315.963C451.386 232.846 485.046 141.808 502.214 173.881ZM1860.94 179.727C1875.67 209.803 1850.94 398.86 1821.59 480.581C1791.56 564.184 1759.65 539.404 1768.27 439.183C1783.38 263.355 1833.37 123.423 1860.94 179.727ZM1379.34 237.344C1421.09 279.093 1365.88 521.289 1314.62 521.289C1309.49 521.289 1303.79 518.612 1301.96 515.342C1299.24 510.467 1319.36 380.162 1344.14 242.253C1346.79 227.512 1366.72 224.731 1379.34 237.344Z" fill="#1F1F1F" style="fill:#1F1F1F;fill:color(display-p3 0.1227 0.1227 0.1227);fill-opacity:1;"/>
</g>
<defs>
<filter id="filter0_d_55_1514" x="0" y="0" width="2039.36" height="715.387" filterUnits="userSpaceOnUse" color-interpolation-filters="sRGB">
<feFlood flood-opacity="0" result="BackgroundImageFix"/>
<feColorMatrix in="SourceAlpha" type="matrix" values="0 0 0 0 0 0 0 0 0 0 0 0 0 0 0 0 0 0 127 0" result="hardAlpha"/>
<feOffset dy="4"/>
<feGaussianBlur stdDeviation="2"/>
<feComposite in2="hardAlpha" operator="out"/>
<feColorMatrix type="matrix" values="0 0 0 0 0 0 0 0 0 0 0 0 0 0 0 0 0 0 0.25 0"/>
<feBlend mode="normal" in2="BackgroundImageFix" result="effect1_dropShadow_55_1514"/>
<feBlend mode="normal" in="SourceGraphic" in2="effect1_dropShadow_55_1514" result="shape"/>
</filter>
</defs>
</svg>
