<svg width="700" height="768" viewBox="0 0 700 768" fill="none" xmlns="http://www.w3.org/2000/svg">
<path fill-rule="evenodd" clip-rule="evenodd" d="M185.244 534.112C171.645 547.206 157.4 557.58 145.13 563.326L140.668 565.416L145.456 565.645C148.09 565.769 150.244 566.094 150.244 566.366C150.244 566.637 148.31 578.083 145.948 591.802C140.171 625.341 140.298 629.032 147.452 635.313C156.593 643.339 177.704 640.012 190.227 628.571C193.19 625.865 193.307 625.635 191.371 626.321C183.449 629.13 177.821 625.852 177.824 618.431C177.825 615.867 184.088 576.864 185.936 567.906L186.372 565.799H194.379C200.117 565.799 202.468 565.528 202.678 564.842C202.839 564.315 203.165 562.763 203.401 561.394L203.831 558.905H195.807C191.393 558.905 187.783 558.646 187.785 558.33C187.787 558.014 188.969 550.865 190.411 542.442C191.854 534.02 192.972 527.072 192.898 527.001C192.823 526.931 189.378 530.131 185.244 534.112ZM236.428 557.383C213.813 560.444 195.443 581.567 195.443 604.509C195.443 644.943 247.968 652.943 267.467 615.477C271.32 608.075 271.306 607.172 267.396 610.966C258.116 619.972 241.405 619.087 235.784 609.291C232.222 603.083 232.288 602.845 237.75 602.251C260.123 599.817 273.583 590.548 273.583 577.573C273.583 564.098 256.281 554.697 236.428 557.383ZM320.697 557.872C314.464 562.823 299.272 567.607 286.845 568.53L279.807 569.054L281.448 571.274C284.391 575.254 284.094 580.551 279.374 608.317C277.01 622.221 274.885 634.546 274.652 635.704L274.227 637.811H291.825H309.423L309.817 636.087C310.035 635.139 312.38 621.372 315.029 605.495C319.43 579.118 319.982 576.589 321.42 576.202C324.242 575.444 328.417 575.735 329.86 576.791C331.524 578.008 331.732 576.082 326.851 604.792C322.752 628.904 322.769 630.574 327.162 634.775C334.682 641.968 357.376 641.256 366.125 633.552L368.194 631.731L364.599 631.707C357.31 631.658 357.323 631.966 363.287 598.075C368.285 569.673 368.499 566.162 365.485 561.931C359.359 553.327 341.604 556.918 325.485 570.021C322.641 572.333 320.315 574.139 320.316 574.034C320.318 573.929 321.007 570.298 321.848 565.964C323.879 555.502 323.859 555.36 320.697 557.872ZM415.691 558.262C408.092 563.365 394.51 567.572 382.638 568.501L375.643 569.048L377.473 571.744C380.248 575.834 379.971 578.696 372.408 624.021C368.615 646.746 365.513 665.694 365.513 666.13C364.407 670.257 358.235 672.172 358.235 672.172H404.966C404.966 672.172 399.986 671.023 400.425 666.922L402.563 653.707C405.484 635.65 405.01 637.055 407.899 637.883C432.7 644.996 462.627 618.783 464.162 588.602C465.732 557.716 443.545 546.909 420.955 567.555C418.692 569.624 416.84 571.022 416.84 570.664C416.84 570.306 417.357 567.311 417.989 564.008C419.62 555.49 419.662 555.595 415.691 558.262ZM509.536 557.381C469.268 562.255 452.747 611.286 484.279 632.343C511.62 650.6 551.808 633.365 557.051 601.133C561.267 575.216 538.138 553.919 509.536 557.381ZM242.913 562.684C245.852 568.176 240.944 589.756 235.523 595.177C232.077 598.624 231.993 598.542 232.131 591.843C232.482 574.785 239.39 556.102 242.913 562.684ZM521.755 563.884C524.778 570.056 519.703 608.855 513.68 625.626C507.517 642.784 500.968 637.698 502.737 617.131C505.839 581.047 516.097 552.329 521.755 563.884ZM422.919 575.709C431.487 584.276 420.157 633.981 409.637 633.981C408.585 633.981 407.416 633.431 407.041 632.76C406.481 631.76 410.61 605.018 415.696 576.716C416.24 573.691 420.33 573.12 422.919 575.709Z" fill="#043625" style="fill:#043625;fill:color(display-p3 0.0157 0.2118 0.1451);fill-opacity:1;"/>
<path d="M440.683 157.027C522.631 157.027 577.124 238.561 561.734 329.661C547.591 413.69 476.041 481.497 400.333 481.497C320.048 481.497 263.472 399.549 278.864 308.863C293.423 224.833 365.388 157.027 440.683 157.027ZM445.673 169.509C426.539 169.51 410.315 213.603 392.427 316.766C373.708 424.922 375.373 469.018 394.924 469.018C414.892 469.017 430.698 424.089 448.17 321.758C467.306 213.601 466.057 169.509 445.673 169.509Z" fill="#043625" style="fill:#043625;fill:color(display-p3 0.0157 0.2118 0.1451);fill-opacity:1;"/>
<path d="M319.079 199.658C291.424 227.622 271.111 264.909 264.004 305.929C256.941 347.542 264.508 387.378 282.356 418.848C281.345 425.584 280.266 433.074 278.507 444.542H135V443.241C154.734 434.047 168.726 413.461 173.121 386.731L203.483 196.438H172.492V195.002C234.968 169.17 291.342 121.721 339.734 70.5029H340.676L319.079 199.658Z" fill="#043625" style="fill:#043625;fill:color(display-p3 0.0157 0.2118 0.1451);fill-opacity:1;"/>
</svg>
